<?xml version="1.0" encoding="UTF-8" standalone="no"?>
<svg
   xmlns:dc="http://purl.org/dc/elements/1.1/"
   xmlns:cc="http://creativecommons.org/ns#"
   xmlns:rdf="http://www.w3.org/1999/02/22-rdf-syntax-ns#"
   xmlns:svg="http://www.w3.org/2000/svg"
   xmlns="http://www.w3.org/2000/svg"
   xmlns:sodipodi="http://sodipodi.sourceforge.net/DTD/sodipodi-0.dtd"
   xmlns:inkscape="http://www.inkscape.org/namespaces/inkscape"
   viewBox="0 0 1024 426"
   version="1.1"
   id="svg64"
   sodipodi:docname="logo2.svg"
   inkscape:version="0.92.4 (33fec40, 2019-01-16)">
  <metadata
     id="metadata68">
    <rdf:RDF>
      <cc:Work
         rdf:about="">
        <dc:format>image/svg+xml</dc:format>
        <dc:type
           rdf:resource="http://purl.org/dc/dcmitype/StillImage" />
        <dc:title>logo2</dc:title>
      </cc:Work>
    </rdf:RDF>
  </metadata>
  <sodipodi:namedview
     pagecolor="#ffffff"
     bordercolor="#666666"
     borderopacity="1"
     objecttolerance="10"
     gridtolerance="10"
     guidetolerance="10"
     inkscape:pageopacity="0"
     inkscape:pageshadow="2"
     inkscape:window-width="1325"
     inkscape:window-height="713"
     id="namedview66"
     showgrid="false"
     inkscape:zoom="1.0546875"
     inkscape:cx="292.97778"
     inkscape:cy="213"
     inkscape:window-x="41"
     inkscape:window-y="27"
     inkscape:window-maximized="1"
     inkscape:current-layer="svg64" />
  <defs
     id="defs12">
    <style
       id="style10">.cls-1{fill:#6b5b95;}.cls-2,.cls-4{fill:#fff;}.cls-3,.cls-7{fill:none;stroke:#fff;stroke-miterlimit:10;}.cls-4{font-size:174.16px;font-family:Verdana, Verdana;}.cls-5{letter-spacing:-0.01em;}.cls-6{letter-spacing:0em;}.cls-7{stroke-width:4px;}</style>
  </defs>
  <title
     id="title14">logo2</title>
  <g
     id="Calque_1"
     data-name="Calque 1"
     style="fill:#343a40;fill-opacity:1">
    <rect
       class="cls-1"
       width="1024"
       height="426"
       id="rect16"
       x="0"
       y="0"
       style="fill:#343a40;fill-opacity:1" />
  </g>
  <g
     id="Calque_2"
     data-name="Calque 2">
    <circle
       class="cls-2"
       cx="179"
       cy="206"
       r="51"
       id="circle19" />
    <circle
       class="cls-2"
       cx="68"
       cy="171"
       r="16"
       id="circle21" />
    <circle
       class="cls-2"
       cx="68"
       cy="238"
       r="16"
       id="circle23" />
    <circle
       class="cls-2"
       cx="97"
       cy="206"
       r="16"
       id="circle25" />
    <path
       class="cls-3"
       d="M147.5,18.5"
       id="path27" />
    <path
       class="cls-3"
       d="M141.5,29.5"
       id="path29" />
    <path
       class="cls-3"
       d="M229.5,101.5"
       id="path31" />
    <path
       class="cls-3"
       d="M377.5,336.5"
       id="path33" />
    <text
       class="cls-4"
       transform="translate(323.54 265.77) scale(0.64 1)"
       id="text39"
       inkscape:export-xdpi="96"
       inkscape:export-ydpi="96">
      <tspan
         style="-inkscape-font-specification:Arial;font-family:Arial;font-weight:normal;font-style:normal;font-stretch:normal;font-variant:normal"
         id="tspan70">Rhizome 23</tspan>
    </text>
    <path
       class="cls-2"
       d="M164.23,160.45a1.5,1.5,0,0,0,0-3,1.5,1.5,0,0,0,0,3Z"
       id="path41" />
    <path
       class="cls-2"
       d="M68.34,160.73a1.5,1.5,0,0,0,0-3,1.5,1.5,0,0,0,0,3Z"
       id="path43" />
    <path
       class="cls-2"
       d="M158.45,237.29a1.5,1.5,0,0,0,0-3,1.5,1.5,0,0,0,0,3Z"
       id="path45" />
    <path
       class="cls-2"
       d="M58,242.33a1.5,1.5,0,0,0,0-3,1.5,1.5,0,0,0,0,3Z"
       id="path47" />
    <path
       class="cls-2"
       d="M154.93,203.74a1.5,1.5,0,0,0,0-3,1.5,1.5,0,0,0,0,3Z"
       id="path49" />
    <path
       class="cls-2"
       d="M106.49,199.52a1.5,1.5,0,0,0,0-3,1.5,1.5,0,0,0,0,3Z"
       id="path51" />
    <path
       class="cls-2"
       d="M95.15,207.56h63.92a1.5,1.5,0,0,0,0-3H95.15a1.5,1.5,0,0,0,0,3Z"
       id="path53" />
    <path
       class="cls-2"
       d="M57,239.74H171.44a1.5,1.5,0,0,0,0-3H57a1.5,1.5,0,0,0,0,3Z"
       id="path55" />
    <path
       class="cls-2"
       d="M67.54,175.48H176.7a1.5,1.5,0,0,0,0-3h-3.92a1.5,1.5,0,0,0,0,3h6.1a1.5,1.5,0,0,0,0-3h-6.1a1.5,1.5,0,0,0,0,3h3.92a1.5,1.5,0,0,0,0-3H67.54a1.5,1.5,0,0,0,0,3Z"
       id="path57" />
    <path
       class="cls-7"
       d="M178.5,206.5a95,95,0,0,0-95-95"
       id="path59" />
    <path
       class="cls-7"
       d="M178.5,206.5a102.94,102.94,0,0,1-103,103"
       id="path61" />
  </g>
</svg>
